<?xml version="1.0" encoding="utf-8"?>
<!-- Generator: Adobe Illustrator 18.0.0, SVG Export Plug-In . SVG Version: 6.00 Build 0)  -->
<!DOCTYPE svg PUBLIC "-//W3C//DTD SVG 1.1//EN" "http://www.w3.org/Graphics/SVG/1.1/DTD/svg11.dtd">
<svg version="1.1" id="Layer_1" xmlns="http://www.w3.org/2000/svg" xmlns:xlink="http://www.w3.org/1999/xlink" x="0px" y="0px"
	 viewBox="0 0 500 400" enable-background="new 0 0 500 400" xml:space="preserve">
<g id="Layer_1_1_">
	<rect x="30.2" y="27.8" fill="#FFFFFF" width="424.2" height="297.8"/>
	<circle opacity="0.5" fill="#D7D7D6" enable-background="new    " cx="101.1" cy="234" r="20.2"/>
	<circle opacity="0.5" fill="#D7D7D6" enable-background="new    " cx="195.1" cy="119" r="20.2"/>
	<circle opacity="0.5" fill="#D7D7D6" enable-background="new    " cx="158.4" cy="116.7" r="20.2"/>
	<circle opacity="0.5" fill="#D7D7D6" enable-background="new    " cx="154.6" cy="164.6" r="20.2"/>
	<circle opacity="0.5" fill="#D7D7D6" enable-background="new    " cx="142.1" cy="141.6" r="20.2"/>
	<circle opacity="0.5" fill="#D7D7D6" enable-background="new    " cx="102.3" cy="168.1" r="20.2"/>
	<circle opacity="0.5" fill="#D7D7D6" enable-background="new    " cx="127.8" cy="218.2" r="20.2"/>
	<circle opacity="0.5" fill="#D7D7D6" enable-background="new    " cx="152.1" cy="202.5" r="20.2"/>
	<circle opacity="0.5" fill="#D7D7D6" enable-background="new    " cx="155.2" cy="229.8" r="20.2"/>
	<circle opacity="0.5" fill="#D7D7D6" enable-background="new    " cx="182.6" cy="209.5" r="20.2"/>
	<circle opacity="0.5" fill="#D7D7D6" enable-background="new    " cx="184.2" cy="240.5" r="20.2"/>
	<circle opacity="0.5" fill="#D7D7D6" enable-background="new    " cx="214.4" cy="220.3" r="20.2"/>
	<circle opacity="0.5" fill="#D7D7D6" enable-background="new    " cx="214.4" cy="250.3" r="20.2"/>
	<circle opacity="0.5" fill="#D7D7D6" enable-background="new    " cx="193.2" cy="273.4" r="20.2"/>
	<circle opacity="0.5" fill="#D7D7D6" enable-background="new    " cx="188.7" cy="304.1" r="20.2"/>
	<circle opacity="0.5" fill="#D7D7D6" enable-background="new    " cx="161.2" cy="286.8" r="20.2"/>
	<circle opacity="0.5" fill="#D7D7D6" enable-background="new    " cx="157" cy="319.3" r="20.2"/>
	<circle opacity="0.5" fill="#D7D7D6" enable-background="new    " cx="131.9" cy="323.1" r="20.2"/>
	<circle opacity="0.5" fill="#D7D7D6" enable-background="new    " cx="133.2" cy="291.6" r="20.2"/>
	<circle opacity="0.5" fill="#D7D7D6" enable-background="new    " cx="105.4" cy="311" r="20.2"/>
	<circle opacity="0.5" fill="#D7D7D6" enable-background="new    " cx="78.1" cy="318.8" r="20.2"/>
	<circle opacity="0.5" fill="#D7D7D6" enable-background="new    " cx="85.1" cy="288.5" r="20.2"/>
	<circle opacity="0.5" fill="#D7D7D6" enable-background="new    " cx="55.6" cy="299" r="20.2"/>
	<circle opacity="0.5" fill="#D7D7D6" enable-background="new    " cx="30.1" cy="279.7" r="20.2"/>
	<circle opacity="0.5" fill="#D7D7D6" enable-background="new    " cx="60.6" cy="270.5" r="20.2"/>
	<circle opacity="0.5" fill="#D7D7D6" enable-background="new    " cx="35.4" cy="250.3" r="20.2"/>
	<circle opacity="0.5" fill="#D7D7D6" enable-background="new    " cx="69.4" cy="246.3" r="20.2"/>
	<circle opacity="0.5" fill="#D7D7D6" enable-background="new    " cx="45.7" cy="224.2" r="20.2"/>
	<circle opacity="0.5" fill="#D7D7D6" enable-background="new    " cx="51.4" cy="191.4" r="20.2"/>
	<circle opacity="0.5" fill="#D7D7D6" enable-background="new    " cx="77.2" cy="213.8" r="20.2"/>
	<circle opacity="0.5" fill="#D7D7D6" enable-background="new    " cx="102.3" cy="200" r="20.2"/>
	<circle opacity="0.5" fill="#D7D7D6" enable-background="new    " cx="111.1" cy="139.2" r="20.2"/>
	<circle opacity="0.5" fill="#D7D7D6" enable-background="new    " cx="67" cy="162.8" r="20.2"/>
	<circle opacity="0.5" fill="#D7D7D6" enable-background="new    " cx="127.3" cy="171.2" r="20.2"/>
	<circle opacity="0.5" fill="#D7D7D6" enable-background="new    " cx="80.9" cy="179" r="20.2"/>
	<circle opacity="0.5" fill="#D7D7D6" enable-background="new    " cx="80.9" cy="136.3" r="20.2"/>
	<circle opacity="0.5" fill="#D7D7D6" enable-background="new    " cx="51.4" cy="141.6" r="20.2"/>
	<circle opacity="0.5" fill="#D7D7D6" enable-background="new    " cx="55.6" cy="119" r="20.2"/>
	<circle opacity="0.5" fill="#D7D7D6" enable-background="new    " cx="40.7" cy="94.8" r="20.2"/>
	<circle opacity="0.5" fill="#D7D7D6" enable-background="new    " cx="71.6" cy="92.6" r="20.2"/>
	<circle opacity="0.5" fill="#D7D7D6" enable-background="new    " cx="51.4" cy="61.6" r="20.2"/>
	<circle opacity="0.5" fill="#D7D7D6" enable-background="new    " cx="75.9" cy="33.1" r="20.2"/>
	<circle opacity="0.5" fill="#D7D7D6" enable-background="new    " cx="80.9" cy="65.8" r="20.2"/>
	<circle opacity="0.5" fill="#D7D7D6" enable-background="new    " cx="107.5" cy="43.2" r="20.2"/>
	<circle opacity="0.5" fill="#D7D7D6" enable-background="new    " cx="111.1" cy="68.6" r="20.2"/>
	<circle opacity="0.5" fill="#D7D7D6" enable-background="new    " cx="132" cy="47.4" r="20.1"/>
	<circle opacity="0.5" fill="#D7D7D6" enable-background="new    " cx="163.6" cy="42.3" r="19.3"/>
	<circle opacity="0.5" fill="#D7D7D6" enable-background="new    " cx="150.2" cy="75.1" r="20.8"/>
	<circle opacity="0.5" fill="#D7D7D6" enable-background="new    " cx="181.2" cy="69.6" r="20.2"/>
	<circle fill="#D7D7D6" fill-opacity="0.5" cx="208.9" cy="72.8" r="20.1"/>
	<circle fill="#D7D7D6" fill-opacity="0.5" cx="227.6" cy="52.8" r="18.1"/>
	<circle fill="#D7D7D6" fill-opacity="0.5" cx="177" cy="97.6" r="20.2"/>
	<circle fill="#D7D7D6" fill-opacity="0.5" cx="377.1" cy="273.7" r="20.6"/>
	<circle fill="#D7D7D6" fill-opacity="0.5" cx="363.8" cy="250" r="20.6"/>
	<circle fill="#D7D7D6" fill-opacity="0.5" cx="340.5" cy="276.3" r="20.6"/>
	<circle fill="#D7D7D6" fill-opacity="0.5" cx="334.8" cy="240.5" r="20.6"/>
	<circle fill="#D7D7D6" fill-opacity="0.5" cx="311.3" cy="265.3" r="20.6"/>
	<circle fill="#D7D7D6" fill-opacity="0.5" cx="282.9" cy="279" r="20.6"/>
	<circle fill="#D7D7D6" fill-opacity="0.5" cx="291.5" cy="247.6" r="20.6"/>
	<circle fill="#D7D7D6" fill-opacity="0.5" cx="257.8" cy="253.1" r="20.6"/>
	<circle fill="#D7D7D6" fill-opacity="0.5" cx="275.1" cy="222" r="20.6"/>
	<circle fill="#D7D7D6" fill-opacity="0.5" cx="243.6" cy="226.4" r="20.6"/>
	<circle fill="#D7D7D6" fill-opacity="0.5" cx="259.6" cy="195.6" r="20.6"/>
	<circle fill="#FDC58E" fill-opacity="0.5" cx="393.1" cy="215.4" r="20.6"/>

		<linearGradient id="SVGID_1_" gradientUnits="userSpaceOnUse" x1="284.8705" y1="307.328" x2="324.017" y2="294.7359" gradientTransform="matrix(0.4253 -0.9051 -0.9051 -0.4253 537.7516 649.8397)">
		<stop  offset="0.1789" style="stop-color:#B9B5B5"/>
		<stop  offset="1" style="stop-color:#75B5DD"/>
	</linearGradient>
	<circle fill="url(#SVGID_1_)" fill-opacity="0.5" cx="394.8" cy="246.3" r="20.6"/>
	<circle fill="#EEF1B6" fill-opacity="0.5" cx="423.6" cy="236.6" r="20.6"/>
	<circle fill="#81C99A" fill-opacity="0.5" cx="423.6" cy="204" r="20.6"/>
	<circle fill="#7FC99B" fill-opacity="0.5" cx="363" cy="39.2" r="20.6"/>

		<linearGradient id="SVGID_2_" gradientUnits="userSpaceOnUse" x1="310.9688" y1="348.5205" x2="352.0938" y2="348.5205" gradientTransform="matrix(1 0 0 -1 0 402)">
		<stop  offset="0.2073" style="stop-color:#B9B5B5"/>
		<stop  offset="1" style="stop-color:#EE6463"/>
	</linearGradient>
	<circle fill="url(#SVGID_2_)" fill-opacity="0.5" cx="331.5" cy="53.5" r="20.6"/>
	<circle fill="#FDC48C" fill-opacity="0.5" cx="355.8" cy="74" r="20.6"/>
	<circle fill="#D7D7D6" fill-opacity="0.5" cx="300.7" cy="38.4" r="20.6"/>
	<circle fill="#D7D7D6" fill-opacity="0.5" cx="300.7" cy="70.9" r="20.6"/>
	<circle fill="#D7D7D6" fill-opacity="0.5" cx="196.5" cy="42.3" r="20.6"/>
	<circle fill="#D7D7D6" fill-opacity="0.5" cx="268.9" cy="51.8" r="20.6"/>
	<circle fill="#D7D7D6" fill-opacity="0.5" cx="273.4" cy="85.8" r="20.6"/>
	<circle fill="#D7D7D6" fill-opacity="0.5" cx="243.6" cy="72.4" r="20.6"/>
	<circle fill="#D7D7D6" fill-opacity="0.5" cx="229" cy="101.5" r="20.6"/>
	<circle fill="#D7D7D6" fill-opacity="0.5" cx="258.9" cy="106.4" r="20.6"/>
	<circle fill="#75B4DD" fill-opacity="0.5" cx="383.6" cy="66.4" r="20.6"/>
	<circle fill="#D7D7D6" fill-opacity="0.5" cx="261.6" cy="137" r="20.6"/>
	<circle fill="#D7D7D6" fill-opacity="0.5" cx="229" cy="133" r="20.6"/>
	<circle fill="#D7D7D6" fill-opacity="0.5" cx="244.9" cy="165.5" r="20.6"/>
	<circle fill="#D7D7D6" fill-opacity="0.5" cx="231.2" cy="195.6" r="20.6"/>
	<circle fill="#D7D7D6" fill-opacity="0.5" cx="214.4" cy="175.1" r="20.6"/>
	<circle fill="#D7D7D6" fill-opacity="0.5" cx="212.6" cy="147.5" r="20.6"/>
	<circle fill="#D7D7D6" fill-opacity="0.5" cx="178.9" cy="145.9" r="20.6"/>
	<g id="bg">
		<path fill="#FFFFFF" d="M115.5,61.2c-14.7,0-25.9,3.8-33.7,11.4c-7.8,7.6-11.6,17.8-11.6,30.6c0,6.2,1,11.9,3,17.1
			c2,5.2,4.9,9.6,8.7,13.4c3.8,3.7,8.6,6.6,14.2,8.7c5.6,2.1,12.1,3.1,19.3,3.1c7.4,0,14-1,19.7-3.1c5.7-2.1,10.5-5,14.3-8.7
			c3.8-3.7,6.7-8.2,8.6-13.4c1.9-5.2,2.9-10.9,2.9-17.1c0-12.8-3.9-23-11.6-30.6C141.6,65,130.4,61.2,115.5,61.2z"/>
		<path fill="#FFFFFF" d="M65,244c-4.9,5.4-7.3,11.8-7.3,19.2c0,4.7,1.2,9.1,3.6,13.1c2.4,4.1,6.1,7.6,11,10.6
			c4.9,3,11.1,5.3,18.6,7c7.5,1.7,16.3,2.6,26.4,2.6c9.9,0,18.7-0.9,26.6-2.7c7.8-1.8,14.4-4.3,19.9-7.7s9.6-7.2,12.5-11.8
			c2.9-4.6,4.3-9.6,4.3-15.1c0-5.2-1.4-9.5-4.3-12.6c-2.9-3.2-6.8-5.6-11.7-7.3s-10.6-3-17.1-3.8c-6.4-0.8-13.2-1.4-20.4-1.8
			c-7.1-0.3-14.4-0.7-21.8-1.1c-7.4-0.4-14.5-1.2-21.2-2.3C76.2,234.1,69.9,238.6,65,244z"/>
		<path fill="#FFFFFF" d="M-271-180v768H753v-768H-271z M219.1,60.2c0,4.6-2.9,7.5-8.6,8.7l-23.7,3.3c4.7,9,7,19,7,30
			c0,10.2-2,19.5-5.9,27.8c-3.9,8.3-9.3,15.5-16.3,21.4c-6.9,5.9-15.2,10.5-24.7,13.7s-20,4.8-31.4,4.8c-9.7,0-18.9-1.2-27.6-3.5
			c-4.4,2.8-7.7,5.7-10,8.9c-2.3,3.2-3.4,6.3-3.4,9.3c0,5,2,8.7,6,11.3c4,2.6,9.3,4.4,15.8,5.5c6.6,1.1,14.1,1.8,22.4,2.1
			c8.4,0.3,16.9,0.7,25.6,1.3c8.7,0.6,17.3,1.7,25.6,3.2c8.4,1.5,15.8,4,22.4,7.5c6.6,3.5,11.9,8.2,15.8,14.3c4,6.1,6,13.9,6,23.6
			c0,9-2.2,17.7-6.7,26.1c-4.5,8.4-10.9,15.9-19.2,22.5c-8.4,6.6-18.6,11.8-30.7,15.7c-12.1,3.9-25.7,5.9-41,5.9s-28.6-1.5-40-4.6
			c-11.5-3-21-7.1-28.5-12.2c-7.5-5.1-13.2-11-17-17.7s-5.7-13.7-5.7-21c0-10.3,3.3-19.1,9.8-26.4c6.5-7.2,15.5-13,26.9-17.3
			c-5.9-2.8-10.6-6.5-14.1-11.1c-3.5-4.6-5.2-10.8-5.2-18.5c0-3,0.5-6.2,1.6-9.4s2.8-6.5,5-9.6c2.3-3.2,5-6.2,8.3-9.1
			c3.3-2.9,7.1-5.5,11.5-7.7c-10.3-5.8-18.4-13.5-24.2-23.1c-5.8-9.6-8.7-20.8-8.7-33.6c0-10.2,2-19.5,5.9-27.8
			c3.9-8.3,9.4-15.5,16.4-21.3c7-5.9,15.3-10.4,25-13.6s20.3-4.8,31.8-4.8c9.1,0,17.5,1,25.4,3c7.9,2,15.1,4.9,21.5,8.8h56.6V60.2z
			 M439.2,210.6c-4.1,15.4-12.8,28-22.6,38.6s-21.7,18.9-35.7,24.6c-14,5.7-29.7,8.6-47.1,8.6c-17.4,0-33.1-2.9-47.1-8.6
			c-14-5.7-26-13.9-35.8-24.6c-9.9-10.7-17.5-23.6-22.8-38.6c-5.3-15.1-8-32-8-50.9c0-18.7,2.7-35.6,8-50.8
			c5.3-15.2,12.9-28.1,22.8-38.8c9.9-10.7,21.8-18.9,35.8-24.7c14-5.8,29.7-8.7,47.1-8.7c17.4,0,33.1,2.9,47.1,8.7
			c6.7,2.8,15.2,6.1,18.7,10c3.5,3.9,7.2,11.9,1.1,21.7c-7.9,12.7-22.8,5.1-29.6,2c-8.8-4-22.5-9.5-37.3-9.5c-11.9,0-22.2,2-31,6.1
			c-8.8,4.1-16.1,10-22,17.7c-5.9,7.7-10.3,17.2-13.2,28.4c-2.9,11.2-4.3,23.9-4.3,38s1.4,26.8,4.3,37.9
			c2.9,11.1,7.3,20.5,13.2,28.1c5.9,7.6,13.2,13.5,22,17.5c8.8,4.1,19.1,6.1,31,6.1c23.5,0,41.6-7.7,54.4-22.4
			c9.9-11.4,12.5-17.1,13.7-19.7C415.3,176.6,443.3,195,439.2,210.6z"/>
	</g>
	<g>
		<path display="none" fill="#959595" d="M61.3,279.4c2.4,4.1,6.1,7.6,11,10.6c4.9,3,11.1,5.3,18.6,7c7.5,1.7,16.3,2.6,26.4,2.6
			c9.9,0,18.7-0.9,26.6-2.7c7.8-1.8,14.4-4.3,19.9-7.7s9.6-7.2,12.5-11.8c2.9-4.6,4.3-9.6,4.3-15.1c0-0.5,0-1-0.1-1.5
			c-0.2-4.6-1.7-8.3-4.3-11.2c-2.9-3.2-6.8-5.6-11.7-7.3s-10.6-3-17.1-3.8c-6.4-0.8-13.2-1.4-20.4-1.8c-7.1-0.3-14.4-0.7-21.8-1.1
			c-7.4-0.4-14.5-1.2-21.2-2.3c-7.8,3.7-14.2,8.3-19,13.7c-4.5,5-6.9,10.9-7.3,17.6c0,0.5,0,1.1,0,1.6
			C57.7,271,58.9,275.3,61.3,279.4z"/>
		<path display="none" fill="#959595" d="M73.2,123.3c2,5.2,4.9,9.6,8.7,13.4c3.8,3.7,8.6,6.6,14.2,8.7c5.6,2.1,12.1,3.1,19.3,3.1
			c7.4,0,14-1,19.7-3.1c5.7-2.1,10.5-5,14.3-8.7c3.8-3.7,6.7-8.2,8.6-13.4c1.9-5.2,2.9-10.9,2.9-17.1c0-0.5,0-1,0-1.5
			c-0.3-12.1-4.2-21.8-11.6-29.1c-7.8-7.6-19-11.4-33.9-11.4c-14.7,0-25.9,3.8-33.7,11.4c-7.4,7.3-11.3,17-11.6,29.1
			c0,0.5,0,1,0,1.5C70.2,112.5,71.2,118.2,73.2,123.3z"/>
		<path display="none" fill="#959595" d="M48.2,306.7c7.5,5.1,17,9.2,28.5,12.2c11.5,3,24.8,4.6,40,4.6s28.9-2,41-5.9
			c12.1-3.9,22.3-9.2,30.7-15.7c8.4-6.6,14.8-14,19.2-22.5c4.2-8,6.4-16.2,6.6-24.7c-0.2-8.9-2.2-16.2-5.9-22
			c-4-6.1-9.3-10.8-15.8-14.3c-6.6-3.5-14.1-5.9-22.4-7.5c-8.4-1.5-16.9-2.6-25.6-3.2c-8.7-0.6-17.3-1.1-25.6-1.3
			c-8.4-0.3-15.8-1-22.4-2.1c-6.6-1.1-11.9-2.9-15.8-5.5c-4-2.6-6-6.3-6-11.3c0-0.5,0-0.9,0.1-1.4c-0.1-0.5-0.1-1.1-0.1-1.6
			c0-3,1.1-6.1,3.4-9.3c2.3-3.2,5.6-6.1,10-8.9c8.6,2.3,17.8,3.5,27.6,3.5c11.4,0,21.9-1.6,31.4-4.8s17.8-7.7,24.7-13.7
			c6.9-5.9,12.3-13.1,16.3-21.4c3.7-7.9,5.6-16.7,5.8-26.3c-0.2-10.5-2.5-20-7-28.6l1.4-0.2c-0.4-0.9-0.9-1.9-1.4-2.8l23.7-3.3
			c5.8-1.2,8.6-4.1,8.6-8.7V49.5h-56.6c-6.4-3.9-13.6-6.8-21.5-8.8c-7.9-2-16.4-3-25.4-3c-11.5,0-22.1,1.6-31.8,4.8s-18,7.7-25,13.6
			c-7,5.9-12.5,13-16.4,21.3c-3.8,8-5.7,17-5.8,26.7c0.3,12,3.2,22.6,8.7,31.8c5.8,9.6,13.9,17.3,24.2,23.1
			c-0.9,0.5-1.8,0.9-2.6,1.4c0.9,0.5,1.7,1.1,2.6,1.6c-4.4,2.2-8.2,4.8-11.5,7.7c-3.3,2.9-6.1,5.9-8.3,9.1c-2.3,3.2-3.9,6.4-5,9.6
			c-1,2.8-1.5,5.6-1.6,8.2c0.3,6.9,2,12.5,5.2,16.7c3.5,4.6,8.2,8.3,14.1,11.1c-1.1,0.4-2.2,0.9-3.3,1.3c1,0.6,2.1,1.2,3.3,1.7
			c-11.4,4.3-20.3,10-26.9,17.3c-6.1,6.8-9.4,15-9.7,24.5c0.2,6.9,2,13.5,5.6,19.9C35,295.7,40.6,301.6,48.2,306.7z M70.2,103.3
			c0-12.8,3.9-23,11.6-30.6c7.8-7.6,19-11.4,33.7-11.4c14.8,0,26.1,3.8,33.9,11.4c7.8,7.6,11.6,17.8,11.6,30.6c0,0.5,0,1,0,1.5
			c0,0.5,0,1,0,1.5c0,6.2-1,11.9-2.9,17.1c-1.9,5.2-4.8,9.6-8.6,13.4c-3.8,3.7-8.6,6.6-14.3,8.7c-5.7,2.1-12.2,3.1-19.7,3.1
			c-7.3,0-13.7-1-19.3-3.1c-5.6-2.1-10.4-5-14.2-8.7c-3.8-3.7-6.8-8.2-8.7-13.4c-2-5.2-3-10.9-3-17.1c0-0.5,0-1,0-1.5
			C70.2,104.2,70.2,103.7,70.2,103.3z M57.7,263.3c0-7.5,2.4-13.9,7.3-19.2c4.9-5.4,11.2-9.9,19-13.7c6.7,1.1,13.8,1.9,21.2,2.3
			c7.4,0.4,14.7,0.8,21.8,1.1c7.1,0.3,13.9,0.9,20.4,1.8c6.4,0.8,12.1,2.1,17.1,3.8s8.9,4.2,11.7,7.3c2.9,3.2,4.3,7.4,4.3,12.6
			c0,0.5,0,1-0.1,1.5c0,0.5,0.1,1,0.1,1.5c0,5.5-1.4,10.6-4.3,15.1c-2.9,4.6-7,8.5-12.5,11.8s-12,5.9-19.9,7.7
			c-7.8,1.8-16.7,2.7-26.6,2.7c-10.2,0-19-0.9-26.4-2.6c-7.5-1.7-13.7-4.1-18.6-7c-4.9-3-8.6-6.5-11-10.6c-2.4-4.1-3.6-8.5-3.6-13.1
			c0-0.5,0-1.1,0-1.6C57.7,264.2,57.7,263.7,57.7,263.3z"/>
		<path fill="#959595" d="M115.5,64.2c14.8,0,26.1,3.8,33.9,11.4c7.4,7.3,11.3,17,11.6,29.1c0-0.5,0-1,0-1.5
			c0-12.8-3.9-23-11.6-30.6c-7.8-7.6-19-11.4-33.9-11.4c-14.7,0-25.9,3.8-33.7,11.4c-7.8,7.6-11.6,17.8-11.6,30.6c0,0.5,0,1,0,1.5
			c0.3-12.1,4.2-21.8,11.6-29.1C89.6,68,100.8,64.2,115.5,64.2z"/>
		<path fill="#959595" d="M84,233.4c6.7,1.1,13.8,1.9,21.2,2.3c7.4,0.4,14.7,0.8,21.8,1.1c7.1,0.3,13.9,0.9,20.4,1.8
			c6.4,0.8,12.1,2.1,17.1,3.8s8.9,4.2,11.7,7.3c2.6,2.9,4,6.6,4.3,11.2c0-0.5,0.1-1,0.1-1.5c0-5.2-1.4-9.5-4.3-12.6
			c-2.9-3.2-6.8-5.6-11.7-7.3s-10.6-3-17.1-3.8c-6.4-0.8-13.2-1.4-20.4-1.8c-7.1-0.3-14.4-0.7-21.8-1.1c-7.4-0.4-14.5-1.2-21.2-2.3
			c-7.8,3.7-14.2,8.3-19,13.7c-4.9,5.4-7.3,11.8-7.3,19.2c0,0.5,0,0.9,0,1.4C58,257.9,60.5,252,65,247
			C69.8,241.6,76.2,237.1,84,233.4z"/>
		<line fill="none" x1="219" y1="49.5" x2="219" y2="60.2"/>
		<path fill="#959595" d="M31.2,292c3.8,6.7,9.4,12.6,17,17.7c7.5,5.1,17,9.2,28.5,12.2c11.5,3,24.8,4.6,40,4.6s28.9-2,41-5.9
			c12.1-3.9,22.3-9.2,30.7-15.7c8.4-6.6,14.8-14,19.2-22.5c4.5-8.4,6.7-17.1,6.7-26.1c0-0.6,0-1.1,0-1.6c-0.2,8.5-2.4,16.7-6.6,24.7
			c-4.5,8.4-10.9,15.9-19.2,22.5c-8.4,6.6-18.6,11.8-30.7,15.7c-12.1,3.9-25.7,5.9-41,5.9s-28.6-1.5-40-4.6
			c-11.5-3-21-7.1-28.5-12.2c-7.5-5.1-13.2-11-17-17.7c-3.6-6.3-5.4-13-5.6-19.9c0,0.6,0,1.2,0,1.9C25.6,278.3,27.4,285.3,31.2,292z
			"/>
		<path fill="#959595" d="M210.4,68.9l-23.7,3.3c0.5,0.9,0.9,1.9,1.4,2.8l22.3-3.1c5.8-1.2,8.6-4.1,8.6-8.7v-3
			C219,64.8,216.1,67.7,210.4,68.9z"/>
		<path fill="#959595" d="M171.4,151.3c-6.9,5.9-15.2,10.5-24.7,13.7s-20,4.8-31.4,4.8c-9.7,0-18.9-1.2-27.6-3.5
			c-4.4,2.8-7.7,5.7-10,8.9c-2.3,3.2-3.4,6.3-3.4,9.3c0,0.6,0,1.1,0.1,1.6c0.3-2.6,1.4-5.2,3.3-7.9c2.3-3.2,5.6-6.1,10-8.9
			c8.6,2.3,17.8,3.5,27.6,3.5c11.4,0,21.9-1.6,31.4-4.8s17.8-7.7,24.7-13.7c6.9-5.9,12.3-13.1,16.3-21.4c3.9-8.3,5.9-17.6,5.9-27.8
			c0-0.5,0-0.9,0-1.4c-0.2,9.6-2.1,18.4-5.8,26.3C183.7,138.3,178.3,145.4,171.4,151.3z"/>
		<path fill="#959595" d="M45,135.7c-5.5-9.1-8.4-19.7-8.7-31.8c0,0.4,0,0.7,0,1.1c0,12.8,2.9,24,8.7,33.6
			c5.3,8.8,12.5,15.9,21.6,21.5c0.9-0.5,1.7-1,2.6-1.4C58.9,153,50.9,145.3,45,135.7z"/>
		<path fill="#959595" d="M48.1,213.3c-3.2-4.3-4.9-9.8-5.2-16.7c0,0.4-0.1,0.8-0.1,1.2c0,7.7,1.7,13.9,5.2,18.5
			c2.8,3.7,6.5,6.9,10.8,9.4c1.1-0.4,2.1-0.9,3.3-1.3C56.3,221.6,51.6,217.9,48.1,213.3z"/>
	</g>
	<g>

			<linearGradient id="SVGID_3_" gradientUnits="userSpaceOnUse" x1="267.5393" y1="236.5676" x2="379.4077" y2="356.5317" gradientTransform="matrix(1 0 0 -1 0 402)">
			<stop  offset="0.5244" style="stop-color:#949494"/>
			<stop  offset="0.5944" style="stop-color:#969493"/>
			<stop  offset="0.6196" style="stop-color:#9C9190"/>
			<stop  offset="0.6376" style="stop-color:#A78D8A"/>
			<stop  offset="0.6521" style="stop-color:#B58782"/>
			<stop  offset="0.6645" style="stop-color:#C77E79"/>
			<stop  offset="0.6753" style="stop-color:#DC726D"/>
			<stop  offset="0.6829" style="stop-color:#EE6463"/>
			<stop  offset="0.7724" style="stop-color:#FDC48E"/>
			<stop  offset="0.8618" style="stop-color:#75B5DD"/>
		</linearGradient>
		<path fill="url(#SVGID_3_)" d="M371.1,79.2c-8.8-4-22.5-9.5-37.3-9.5c-11.9,0-22.2,2-31,6.1c-8.8,4.1-16.1,10-22,17.7
			c-5.9,7.7-10.3,17.2-13.2,28.4c-2.9,11.2-4.3,23.9-4.3,38c0,0.5,0,1,0,1.5c0.1-13.5,1.5-25.7,4.3-36.5
			c2.9-11.2,7.3-20.7,13.2-28.4c5.9-7.7,13.2-13.6,22-17.7c8.8-4.1,19.1-6.1,31-6.1c14.8,0,28.6,5.5,37.3,9.5
			c6.7,3.1,21.7,10.7,29.6-2c2.8-4.4,3.5-8.5,3.2-12c-0.2,2.7-1.2,5.8-3.2,9C392.8,90,377.9,82.3,371.1,79.2z"/>

			<linearGradient id="SVGID_4_" gradientUnits="userSpaceOnUse" x1="220.0498" y1="178.6331" x2="439.6653" y2="178.6331" gradientTransform="matrix(1 0 0 -1 0 402)">
			<stop  offset="0.7805" style="stop-color:#949494"/>
			<stop  offset="0.8238" style="stop-color:#949595"/>
			<stop  offset="0.8393" style="stop-color:#92989A"/>
			<stop  offset="0.8505" style="stop-color:#8F9CA4"/>
			<stop  offset="0.8594" style="stop-color:#8AA2B1"/>
			<stop  offset="0.867" style="stop-color:#82AAC3"/>
			<stop  offset="0.8737" style="stop-color:#75B4DB"/>
			<stop  offset="0.874" style="stop-color:#75B5DD"/>
			<stop  offset="0.9553" style="stop-color:#EFF1B6"/>
			<stop  offset="1" style="stop-color:#7FC99B"/>
		</linearGradient>
		<path fill="url(#SVGID_4_)" d="M439.2,210.6c-4.1,15.4-12.8,28-22.6,38.6s-21.7,18.9-35.7,24.6c-14,5.7-29.7,8.6-47.1,8.6
			c-17.4,0-33.1-2.9-47.1-8.6c-14-5.7-26-13.9-35.8-24.6c-9.9-10.7-17.5-23.6-22.8-38.6c-5.2-14.7-7.8-31.1-8-49.4c0,0.5,0,1,0,1.5
			c0,18.8,2.7,35.8,8,50.9c5.3,15.1,12.9,28,22.8,38.6c9.9,10.7,21.8,18.9,35.8,24.6c14,5.7,29.7,8.6,47.1,8.6
			c17.4,0,33.1-2.9,47.1-8.6c14-5.7,25.9-13.9,35.7-24.6s18.5-23.2,22.6-38.6c0.5-1.8,0.6-3.6,0.4-5.4
			C439.5,209,439.4,209.8,439.2,210.6z"/>
	</g>
	<circle fill="#6DC390" cx="419.6" cy="364.2" r="20.2"/>
	<circle fill="#D7E0A2" cx="373.1" cy="364.2" r="20.2"/>
	<circle fill="#E5B07E" cx="326.6" cy="364.2" r="20.2"/>
	<circle fill="#D85959" cx="280.1" cy="364.2" r="20.2"/>
	<circle fill="#3C90C3" cx="233.6" cy="364.2" r="20.2"/>
	<circle fill="#81C99A" cx="419.6" cy="361.5" r="20.2"/>
	<circle fill="#EEF1B6" cx="373.1" cy="361.5" r="20.2"/>
	<circle fill="#FDC58E" cx="326.6" cy="361.5" r="20.2"/>
	<circle fill="#ED6363" cx="280.1" cy="361.5" r="20.2"/>
	<circle fill="#75B4DD" cx="233.6" cy="361.5" r="20.2"/>
	<g>
		<path fill="#969696" d="M234.6,316.3c0,1.4-0.2,2.7-0.6,3.8s-0.9,2.2-1.6,3.1c-0.7,0.9-1.5,1.5-2.5,2c-1,0.5-2.1,0.7-3.3,0.7
			c-1,0-1.9-0.2-2.7-0.5c-0.7-0.3-1.4-0.8-2-1.3v4c0.5,0.1,0.8,0.1,1.1,0.2c0.3,0,0.4,0.1,0.5,0.1c0.1,0,0.2,0,0.2,0
			c0.6,0.1,0.9,0.5,0.9,1.1v2.1H222h-4.4h-2.7v-2.1c0-0.6,0.3-1,0.9-1.1c0.1,0,0.1,0,0.2,0c0.1,0,0.3-0.1,0.5-0.1
			c0.3,0,0.6-0.1,1.1-0.2v-17.4c-0.5-0.1-0.8-0.1-1.1-0.2c-0.3,0-0.4-0.1-0.5-0.1c-0.1,0-0.2,0-0.2,0c-0.6-0.1-0.9-0.5-0.9-1.1v-2.1
			h2.7l2.7,0c0.3,0,0.5,0.1,0.7,0.2s0.3,0.3,0.4,0.6l0.4,1.7c0.7-0.9,1.6-1.5,2.6-2.1c1-0.5,2.1-0.8,3.4-0.8c1,0,1.9,0.2,2.8,0.6
			c0.8,0.4,1.6,1,2.2,1.8s1.1,1.8,1.4,3S234.6,314.8,234.6,316.3z M230,316.3c0-1.1-0.1-2-0.3-2.7s-0.4-1.4-0.7-1.8s-0.7-0.8-1.2-1
			c-0.5-0.2-1-0.3-1.6-0.3c-0.9,0-1.7,0.2-2.4,0.6c-0.7,0.4-1.3,0.9-1.8,1.6v8.3c0.5,0.6,1.1,1.1,1.6,1.3c0.6,0.2,1.2,0.4,1.9,0.4
			c0.7,0,1.3-0.1,1.8-0.4s1-0.6,1.4-1.2c0.4-0.5,0.7-1.2,0.9-2S230,317.4,230,316.3z"/>
		<path fill="#969696" d="M250.4,307.5l-0.6,3.3c0,0.2-0.1,0.4-0.2,0.5c-0.1,0.1-0.3,0.1-0.5,0.1c-0.2,0-0.4,0-0.7-0.1
			s-0.7-0.1-1.2-0.1c-0.9,0-1.7,0.3-2.4,0.8c-0.7,0.5-1.2,1.3-1.7,2.2v7.9c1.5,0.3,1.5,0.3,1.8,0.3c0.6,0.1,0.9,0.5,0.9,1.1v2.1
			h-2.7h0h-4.4h-2.7v-2.1c0-0.6,0.3-1,0.9-1.1c0.3,0,0.3-0.1,1.8-0.3v-11.3c-1.5-0.3-1.5-0.3-1.8-0.3c-0.6-0.1-0.9-0.5-0.9-1.1v-2.1
			h2.7v0h2.6c0.5,0,0.8,0.1,1,0.3c0.2,0.2,0.3,0.5,0.4,0.9l0.3,2.2c0.7-1.1,1.4-2,2.3-2.7s1.9-1,3-1
			C249,306.9,249.8,307.1,250.4,307.5z"/>
		<path fill="#969696" d="M261.4,323.5v2.1h-2.7h-4.4h-2.7v-2.1c0-0.6,0.3-1,0.9-1.1c0.1,0,0.1,0,0.2,0s0.3-0.1,0.5-0.1
			c0.3,0,0.6-0.1,1.1-0.2v-11.3c-0.5-0.1-0.8-0.1-1.1-0.2c-0.3,0-0.4-0.1-0.5-0.1c-0.1,0-0.2,0-0.2,0c-0.6-0.1-0.9-0.5-0.9-1.1v-2.1
			h2.7h4.4v14.9c0.4,0.1,0.8,0.1,1.1,0.2c0.3,0,0.4,0.1,0.5,0.1s0.2,0,0.2,0C261.1,322.6,261.4,322.9,261.4,323.5z M259.1,302.9
			c-0.2,0.3-0.4,0.6-0.6,0.9s-0.6,0.5-0.9,0.6c-0.3,0.1-0.7,0.2-1.1,0.2c-0.4,0-0.7-0.1-1.1-0.2c-0.3-0.2-0.6-0.4-0.9-0.6
			s-0.5-0.5-0.6-0.9c-0.2-0.3-0.2-0.7-0.2-1.1c0-0.4,0.1-0.8,0.2-1.1c0.2-0.3,0.4-0.6,0.6-0.9s0.5-0.5,0.9-0.6
			c0.3-0.2,0.7-0.2,1.1-0.2c0.4,0,0.8,0.1,1.1,0.2c0.3,0.1,0.7,0.4,0.9,0.6s0.5,0.6,0.6,0.9c0.2,0.3,0.2,0.7,0.2,1.1
			C259.4,302.2,259.3,302.6,259.1,302.9z"/>
		<path fill="#969696" d="M284.3,323.5v2.1h-2.7h-4.4v-11.8c0-1.1-0.3-2-0.8-2.6c-0.5-0.6-1.3-0.9-2.3-0.9c-0.8,0-1.5,0.2-2.2,0.5
			s-1.3,0.8-1.9,1.4v9.8c0.4,0.1,0.8,0.1,1.1,0.2c0.3,0,0.4,0.1,0.5,0.1c0.1,0,0.2,0,0.2,0c0.6,0.1,0.9,0.5,0.9,1.1v2.1h-2.7h-4.4
			h-2.7v-2.1c0-0.6,0.3-1,0.9-1.1c0.1,0,0.1,0,0.2,0c0.1,0,0.3,0,0.5-0.1c0.3,0,0.6-0.1,1.1-0.2v-11.3c-0.4-0.1-0.8-0.1-1.1-0.2
			c-0.3,0-0.4-0.1-0.5-0.1c-0.1,0-0.2,0-0.2,0c-0.6-0.1-0.9-0.5-0.9-1.1v-2.1h2.7l2.7,0c0.6,0,1,0.3,1.1,0.8l0.3,1.5
			c0.4-0.4,0.8-0.7,1.2-1c0.4-0.3,0.9-0.6,1.3-0.8c0.5-0.2,1-0.4,1.5-0.5s1.1-0.2,1.7-0.2c1,0,1.9,0.2,2.7,0.5
			c0.8,0.3,1.4,0.8,2,1.4c0.5,0.6,0.9,1.4,1.2,2.2c0.3,0.9,0.4,1.8,0.4,2.8v8.2c0.4,0.1,0.8,0.1,1.1,0.2c0.3,0,0.4,0.1,0.5,0.1
			c0.1,0,0.2,0,0.2,0C284,322.6,284.3,322.9,284.3,323.5z"/>
		<path fill="#969696" d="M288.7,324.6c-0.9-0.9-1.3-2.2-1.3-3.8v-10.3h-1.9c-0.2,0-0.4-0.1-0.6-0.2c-0.2-0.2-0.3-0.4-0.3-0.7v-1.8
			l3-0.5l0.9-5c0-0.2,0.2-0.4,0.3-0.6c0.2-0.1,0.4-0.2,0.7-0.2h2.3v5.8h4.9v3.2h-4.9v10c0,0.6,0.1,1,0.4,1.4
			c0.3,0.3,0.7,0.5,1.2,0.5c0.3,0,0.5,0,0.7-0.1c0.2-0.1,0.3-0.1,0.5-0.2c0.1-0.1,0.3-0.1,0.4-0.2c0.1-0.1,0.2-0.1,0.3-0.1
			c0.1,0,0.2,0,0.3,0.1c0.1,0.1,0.2,0.2,0.3,0.3l1.3,2.2c-0.6,0.5-1.4,0.9-2.2,1.2c-0.8,0.3-1.7,0.4-2.6,0.4
			C290.7,326,289.5,325.5,288.7,324.6z"/>
		<path fill="#969696" d="M316.8,307.7c0.6,0.2,1.1,0.5,1.5,0.9s0.7,0.8,1,1.3c0.2,0.5,0.4,1,0.4,1.5l-2,0.4c0,0-0.1,0-0.1,0h-0.1
			c-0.1,0-0.3,0-0.4-0.1c-0.1-0.1-0.2-0.2-0.3-0.4c-0.1-0.2-0.2-0.4-0.3-0.6c-0.1-0.2-0.3-0.4-0.4-0.5c-0.2-0.1-0.4-0.3-0.6-0.3
			c-0.2-0.1-0.5-0.1-0.8-0.1c-0.3,0-0.7,0.1-0.9,0.2c-0.3,0.1-0.5,0.3-0.7,0.5s-0.3,0.4-0.4,0.7c-0.1,0.3-0.2,0.6-0.2,0.9
			c0,0.2,0,0.5,0.1,0.7c0.1,0.2,0.1,0.5,0.3,0.7s0.3,0.5,0.5,0.7s0.4,0.5,0.7,0.8l4.8,5c0.3-0.5,0.5-1.1,0.7-1.7
			c0.2-0.6,0.3-1.2,0.3-1.8c0-0.2,0.1-0.3,0.2-0.5c0.1-0.1,0.3-0.2,0.4-0.2h1.9c0,1.1-0.2,2.1-0.5,3.1c-0.3,1-0.8,1.9-1.3,2.8
			l3.8,3.9h-3c-0.2,0-0.3,0-0.4,0c-0.1,0-0.2,0-0.3-0.1c-0.1,0-0.2-0.1-0.3-0.2c-0.1-0.1-0.2-0.2-0.3-0.3l-1.2-1.3
			c-0.8,0.7-1.7,1.2-2.7,1.5c-1,0.4-2,0.5-3.2,0.5c-0.7,0-1.4-0.1-2-0.4s-1.3-0.6-1.8-1c-0.5-0.4-0.9-1-1.3-1.6
			c-0.3-0.6-0.5-1.4-0.5-2.2c0-0.6,0.1-1.1,0.3-1.6s0.4-1,0.8-1.4c0.3-0.4,0.7-0.8,1.2-1.2c0.4-0.4,0.9-0.7,1.5-0.9
			c-0.4-0.6-0.8-1.2-1-1.8c-0.2-0.6-0.3-1.2-0.3-1.8c0-0.6,0.1-1.2,0.3-1.8c0.2-0.6,0.6-1.1,1-1.5c0.4-0.4,1-0.7,1.6-1
			c0.6-0.2,1.3-0.4,2.2-0.4C315.5,307.4,316.2,307.5,316.8,307.7z M310.7,321.7c0.2,0.4,0.4,0.7,0.7,0.9c0.3,0.3,0.6,0.5,1,0.6
			c0.4,0.1,0.7,0.2,1.2,0.2c0.7,0,1.4-0.1,2-0.3c0.6-0.2,1.2-0.5,1.7-1l-4.8-4.9c-0.7,0.4-1.2,0.9-1.5,1.5c-0.3,0.5-0.5,1.1-0.5,1.8
			C310.4,320.9,310.5,321.3,310.7,321.7z"/>
		<path fill="#969696" d="M354.1,325.6h-2.5h-2.7c-0.3,0-0.5-0.1-0.7-0.2c-0.2-0.1-0.3-0.3-0.4-0.6l-0.4-1.7
			c-0.7,0.9-1.6,1.5-2.6,2.1s-2.1,0.8-3.4,0.8c-1,0-1.9-0.2-2.8-0.6c-0.8-0.4-1.6-1-2.2-1.8s-1.1-1.8-1.4-3s-0.5-2.5-0.5-4
			c0-1.4,0.2-2.7,0.6-3.8c0.4-1.2,0.9-2.2,1.6-3.1c0.7-0.9,1.5-1.5,2.5-2s2.1-0.7,3.3-0.7c1,0,1.9,0.2,2.7,0.5s1.4,0.8,2,1.3v-6.2
			c-0.5-0.1-0.8-0.1-1.1-0.2c-0.3,0-0.4-0.1-0.5-0.1c-0.1,0-0.2,0-0.2,0c-0.6-0.1-0.9-0.5-0.9-1.1v-2.1h2.7h4.4v23.2
			c0.4,0.1,0.7,0.1,0.9,0.2s0.4,0.1,0.5,0.1c0.1,0,0.2,0,0.2,0c0.6,0.1,0.9,0.5,0.9,1.1L354.1,325.6z M347.1,311.9
			c-0.5-0.6-1.1-1.1-1.6-1.3c-0.6-0.2-1.2-0.4-1.9-0.4c-0.7,0-1.3,0.1-1.8,0.4s-1,0.6-1.4,1.2c-0.4,0.5-0.7,1.2-0.9,2
			s-0.3,1.7-0.3,2.8c0,1.1,0.1,2,0.3,2.7c0.2,0.8,0.4,1.4,0.7,1.8c0.3,0.5,0.7,0.8,1.2,1c0.5,0.2,1,0.3,1.6,0.3
			c0.9,0,1.7-0.2,2.4-0.6c0.7-0.4,1.3-0.9,1.8-1.6V311.9z"/>
		<path fill="#969696" d="M367.3,307.5c1,0.4,1.8,0.9,2.5,1.6c0.7,0.7,1.3,1.6,1.7,2.6c0.4,1,0.6,2.2,0.6,3.6c0,0.3,0,0.6,0,0.8
			c0,0.2-0.1,0.4-0.2,0.5s-0.2,0.2-0.3,0.3c-0.1,0.1-0.3,0.1-0.5,0.1h-11.4c0.1,1.9,0.6,3.3,1.5,4.2c0.9,0.9,2.1,1.3,3.5,1.3
			c0.7,0,1.3-0.1,1.9-0.3c0.5-0.2,1-0.4,1.4-0.6s0.7-0.4,1-0.6c0.3-0.2,0.6-0.3,0.9-0.3c0.2,0,0.3,0,0.5,0.1s0.2,0.2,0.3,0.3
			l1.3,1.6c-0.5,0.6-1,1.1-1.7,1.4c-0.6,0.4-1.3,0.7-1.9,0.9s-1.3,0.4-2,0.5c-0.7,0.1-1.4,0.1-2,0.1c-1.3,0-2.5-0.2-3.6-0.6
			c-1.1-0.4-2.1-1.1-2.9-1.9s-1.5-1.9-1.9-3.1c-0.5-1.2-0.7-2.7-0.7-4.3c0-1.3,0.2-2.4,0.6-3.6c0.4-1.1,1-2.1,1.8-2.9s1.7-1.5,2.8-2
			c1.1-0.5,2.3-0.7,3.7-0.7C365.2,306.9,366.3,307.1,367.3,307.5z M361.1,311.2c-0.7,0.7-1.2,1.8-1.4,3.1h8.4c0-0.6-0.1-1.1-0.2-1.6
			c-0.2-0.5-0.4-1-0.7-1.3c-0.3-0.4-0.7-0.7-1.2-0.9c-0.5-0.2-1.1-0.3-1.7-0.3C362.9,310.1,361.8,310.5,361.1,311.2z"/>
		<path fill="#969696" d="M386.6,319.8c0,0.9-0.2,1.7-0.5,2.5c-0.3,0.8-0.8,1.4-1.4,1.9c-0.6,0.5-1.4,1-2.3,1.3
			c-0.9,0.3-2,0.5-3.2,0.5c-2.3,0-4.5-0.5-5.9-1v0v-1.8v-3.4h0.2h0.4h1.5c0.5,0,0.7,0.2,0.8,0.7c0,0.2,0.1,0.7,0.2,2.1
			c1,0.3,2.1,0.3,2.9,0.3c0.5,0,1-0.1,1.4-0.2c0.4-0.1,0.7-0.3,0.9-0.5s0.4-0.4,0.5-0.7c0.1-0.3,0.2-0.5,0.2-0.8
			c0-0.4-0.1-0.8-0.4-1.1c-0.3-0.3-0.6-0.5-1-0.7s-0.9-0.4-1.5-0.5c-0.5-0.2-1.1-0.3-1.7-0.5c-0.6-0.2-1.1-0.4-1.7-0.7
			c-0.5-0.3-1-0.6-1.5-1s-0.8-0.9-1-1.5c-0.3-0.6-0.4-1.3-0.4-2.1c0-0.8,0.2-1.5,0.5-2.2c0.3-0.7,0.7-1.3,1.3-1.8
			c0.6-0.5,1.3-0.9,2.2-1.2c0.9-0.3,1.9-0.5,3-0.5c1.8,0,2.8,0.1,5.4,1l0,0v5.2h-0.2h-0.4h-1.5c-0.5,0-0.7-0.2-0.8-0.7
			c0-0.2-0.1-0.6-0.2-2c-0.5-0.2-1.3-0.2-2.1-0.2c-0.9,0-1.6,0.2-2.1,0.6s-0.8,0.9-0.8,1.5c0,0.4,0.1,0.7,0.4,1
			c0.3,0.3,0.6,0.5,1,0.7s0.9,0.4,1.4,0.5c0.5,0.2,1.1,0.3,1.7,0.5c0.6,0.2,1.1,0.4,1.7,0.7c0.5,0.2,1,0.6,1.4,0.9
			c0.4,0.4,0.8,0.8,1,1.4S386.6,319.1,386.6,319.8z"/>
		<path fill="#969696" d="M397.7,323.5v2.1h-2.7h-4.4h-2.7v-2.1c0-0.6,0.3-1,0.9-1.1c0.1,0,0.1,0,0.2,0s0.3-0.1,0.5-0.1
			c0.3,0,0.6-0.1,1.1-0.2v-11.3c-0.4-0.1-0.8-0.1-1.1-0.2c-0.3,0-0.4-0.1-0.5-0.1c-0.1,0-0.2,0-0.2,0c-0.6-0.1-0.9-0.5-0.9-1.1v-2.1
			h2.7h4.4v14.9c0.4,0.1,0.8,0.1,1.1,0.2s0.4,0.1,0.5,0.1s0.2,0,0.2,0C397.4,322.6,397.7,322.9,397.7,323.5z M395.4,302.9
			c-0.2,0.3-0.4,0.6-0.6,0.9s-0.6,0.5-0.9,0.6c-0.3,0.1-0.7,0.2-1.1,0.2c-0.4,0-0.7-0.1-1.1-0.2c-0.3-0.2-0.6-0.4-0.9-0.6
			s-0.5-0.5-0.6-0.9c-0.1-0.3-0.2-0.7-0.2-1.1c0-0.4,0.1-0.8,0.2-1.1c0.2-0.3,0.4-0.6,0.6-0.9s0.5-0.5,0.9-0.6
			c0.3-0.2,0.7-0.2,1.1-0.2c0.4,0,0.8,0.1,1.1,0.2c0.3,0.1,0.7,0.4,0.9,0.6s0.5,0.6,0.6,0.9c0.2,0.3,0.2,0.7,0.2,1.1
			C395.6,302.2,395.5,302.6,395.4,302.9z"/>
		<path fill="#969696" d="M409.1,307.1c0.7,0.2,1.3,0.4,1.9,0.7h5.3v1.7c0,0.3-0.1,0.5-0.2,0.6c-0.1,0.2-0.4,0.3-0.7,0.3l-1.7,0.3
			c0.1,0.3,0.2,0.6,0.3,1c0.1,0.3,0.1,0.7,0.1,1.1c0,0.9-0.2,1.7-0.5,2.5c-0.4,0.7-0.9,1.4-1.5,1.9c-0.6,0.5-1.4,0.9-2.3,1.2
			c-0.9,0.3-1.8,0.4-2.9,0.4c-0.7,0-1.4-0.1-2-0.2c-0.6,0.3-0.9,0.7-0.9,1.2c0,0.4,0.2,0.6,0.5,0.8c0.3,0.2,0.8,0.3,1.3,0.4
			c0.6,0.1,1.2,0.1,1.9,0.1c0.7,0,1.4,0.1,2.2,0.1c0.7,0.1,1.5,0.2,2.2,0.3c0.7,0.2,1.3,0.4,1.9,0.7s1,0.8,1.4,1.3
			c0.3,0.6,0.5,1.3,0.5,2.2c0,0.8-0.2,1.6-0.6,2.4c-0.4,0.8-1,1.5-1.7,2.1c-0.8,0.6-1.7,1.1-2.8,1.5c-1.1,0.4-2.4,0.5-3.8,0.5
			c-1.4,0-2.6-0.1-3.7-0.4c-1-0.3-1.9-0.6-2.6-1.1c-0.7-0.5-1.2-1-1.5-1.6s-0.5-1.2-0.5-1.8c0-0.9,0.3-1.6,0.8-2.2
			c0.5-0.6,1.3-1.1,2.2-1.4c-0.5-0.3-0.8-0.6-1.1-1c-0.3-0.4-0.4-1-0.4-1.6c0-0.3,0-0.6,0.1-0.9s0.2-0.6,0.4-0.9
			c0.2-0.3,0.4-0.6,0.7-0.8c0.3-0.3,0.7-0.5,1.1-0.7c-0.9-0.5-1.7-1.2-2.2-2c-0.5-0.8-0.8-1.8-0.8-3c0-0.9,0.2-1.7,0.5-2.5
			c0.4-0.7,0.9-1.4,1.5-1.9c0.7-0.5,1.4-0.9,2.3-1.2s1.9-0.4,2.9-0.4C407.7,306.9,408.4,307,409.1,307.1z M411.4,325.6
			c-0.2-0.2-0.5-0.4-0.9-0.5c-0.4-0.1-0.8-0.2-1.3-0.3c-0.5-0.1-1-0.1-1.6-0.1s-1.1-0.1-1.7-0.1c-0.6,0-1.2-0.1-1.7-0.2
			c-0.5,0.3-0.9,0.6-1.2,1c-0.3,0.4-0.5,0.8-0.5,1.3c0,0.3,0.1,0.6,0.2,0.9c0.2,0.3,0.4,0.5,0.8,0.7c0.4,0.2,0.8,0.4,1.4,0.5
			c0.6,0.1,1.3,0.2,2.1,0.2c0.8,0,1.5-0.1,2.1-0.2c0.6-0.1,1.1-0.3,1.5-0.5c0.4-0.2,0.7-0.5,0.9-0.8c0.2-0.3,0.3-0.6,0.3-1
			S411.7,325.8,411.4,325.6z M408.3,315.8c0.4-0.1,0.7-0.4,1-0.6c0.3-0.3,0.5-0.6,0.6-1s0.2-0.8,0.2-1.2c0-0.9-0.3-1.6-0.8-2.2
			c-0.5-0.5-1.4-0.8-2.5-0.8s-1.9,0.3-2.5,0.8c-0.5,0.5-0.8,1.3-0.8,2.2c0,0.4,0.1,0.8,0.2,1.2c0.1,0.4,0.3,0.7,0.6,1
			c0.3,0.3,0.6,0.5,1,0.6c0.4,0.2,0.9,0.2,1.4,0.2C407.4,316,407.9,315.9,408.3,315.8z"/>
		<path fill="#969696" d="M439.1,323.5v2.1h-2.7h-4.4v-11.8c0-1.1-0.3-2-0.8-2.6c-0.5-0.6-1.3-0.9-2.3-0.9c-0.8,0-1.5,0.2-2.2,0.5
			s-1.3,0.8-1.9,1.4v9.8c0.4,0.1,0.8,0.1,1.1,0.2c0.3,0,0.4,0.1,0.5,0.1c0.1,0,0.2,0,0.2,0c0.6,0.1,0.9,0.5,0.9,1.1v2.1h-2.7h-4.4
			h-2.7v-2.1c0-0.6,0.3-1,0.9-1.1c0.1,0,0.1,0,0.2,0c0.1,0,0.3,0,0.5-0.1c0.3,0,0.6-0.1,1.1-0.2v-11.3c-0.4-0.1-0.8-0.1-1.1-0.2
			c-0.3,0-0.4-0.1-0.5-0.1c-0.1,0-0.2,0-0.2,0c-0.6-0.1-0.9-0.5-0.9-1.1v-2.1h2.7l2.7,0c0.6,0,1,0.3,1.1,0.8l0.3,1.5
			c0.4-0.4,0.8-0.7,1.2-1c0.4-0.3,0.9-0.6,1.3-0.8c0.5-0.2,1-0.4,1.5-0.5c0.5-0.1,1.1-0.2,1.7-0.2c1,0,1.9,0.2,2.7,0.5
			c0.8,0.3,1.4,0.8,2,1.4c0.5,0.6,0.9,1.4,1.2,2.2c0.3,0.9,0.4,1.8,0.4,2.8l0,8.2c0.4,0.1,0.8,0.1,1.1,0.2c0.3,0,0.4,0.1,0.5,0.1
			c0.1,0,0.2,0,0.2,0C438.8,322.6,439.1,322.9,439.1,323.5z"/>
	</g>
	<g>
		<path fill="#D7D7D5" d="M234.6,314.8c0,1.4-0.2,2.7-0.6,3.8s-0.9,2.2-1.6,3.1c-0.7,0.9-1.5,1.5-2.5,2c-1,0.5-2.1,0.7-3.3,0.7
			c-1,0-1.9-0.2-2.7-0.5c-0.7-0.3-1.4-0.8-2-1.3v4c0.5,0.1,0.8,0.1,1.1,0.2c0.3,0,0.4,0.1,0.5,0.1c0.1,0,0.2,0,0.2,0
			c0.6,0.1,0.9,0.5,0.9,1.1v2.1H222h-4.4h-2.7v-2.1c0-0.6,0.3-1,0.9-1.1c0.1,0,0.1,0,0.2,0c0.1,0,0.3-0.1,0.5-0.1
			c0.3,0,0.6-0.1,1.1-0.2v-17.4c-0.5-0.1-0.8-0.1-1.1-0.2c-0.3,0-0.4-0.1-0.5-0.1c-0.1,0-0.2,0-0.2,0c-0.6-0.1-0.9-0.5-0.9-1.1v-2.1
			h2.7l2.7,0c0.3,0,0.5,0.1,0.7,0.2s0.3,0.3,0.4,0.6l0.4,1.7c0.7-0.9,1.6-1.5,2.6-2.1c1-0.5,2.1-0.8,3.4-0.8c1,0,1.9,0.2,2.8,0.6
			c0.8,0.4,1.6,1,2.2,1.8s1.1,1.8,1.4,3S234.6,313.3,234.6,314.8z M230,314.8c0-1.1-0.1-2-0.3-2.7s-0.4-1.4-0.7-1.8s-0.7-0.8-1.2-1
			c-0.5-0.2-1-0.3-1.6-0.3c-0.9,0-1.7,0.2-2.4,0.6c-0.7,0.4-1.3,0.9-1.8,1.6v8.3c0.5,0.6,1.1,1.1,1.6,1.3c0.6,0.2,1.2,0.4,1.9,0.4
			c0.7,0,1.3-0.1,1.8-0.4s1-0.6,1.4-1.2c0.4-0.5,0.7-1.2,0.9-2S230,315.9,230,314.8z"/>
		<path fill="#D7D7D5" d="M250.4,306l-0.6,3.3c0,0.2-0.1,0.4-0.2,0.5c-0.1,0.1-0.3,0.1-0.5,0.1c-0.2,0-0.4,0-0.7-0.1
			s-0.7-0.1-1.2-0.1c-0.9,0-1.7,0.3-2.4,0.8c-0.7,0.5-1.2,1.3-1.7,2.2v7.9c1.5,0.3,1.5,0.3,1.8,0.3c0.6,0.1,0.9,0.5,0.9,1.1v2.1
			h-2.7h0h-4.4h-2.7v-2.1c0-0.6,0.3-1,0.9-1.1c0.3,0,0.3-0.1,1.8-0.3v-11.3c-1.5-0.3-1.5-0.3-1.8-0.3c-0.6-0.1-0.9-0.5-0.9-1.1v-2.1
			h2.7v0h2.6c0.5,0,0.8,0.1,1,0.3c0.2,0.2,0.3,0.5,0.4,0.9l0.3,2.2c0.7-1.1,1.4-2,2.3-2.7s1.9-1,3-1
			C249,305.4,249.8,305.6,250.4,306z"/>
		<path fill="#D7D7D5" d="M261.4,322v2.1h-2.7h-4.4h-2.7V322c0-0.6,0.3-1,0.9-1.1c0.1,0,0.1,0,0.2,0s0.3-0.1,0.5-0.1
			c0.3,0,0.6-0.1,1.1-0.2v-11.3c-0.5-0.1-0.8-0.1-1.1-0.2c-0.3,0-0.4-0.1-0.5-0.1c-0.1,0-0.2,0-0.2,0c-0.6-0.1-0.9-0.5-0.9-1.1v-2.1
			h2.7h4.4v14.9c0.4,0.1,0.8,0.1,1.1,0.2c0.3,0,0.4,0.1,0.5,0.1s0.2,0,0.2,0C261.1,321.1,261.4,321.4,261.4,322z M259.1,301.4
			c-0.2,0.3-0.4,0.6-0.6,0.9s-0.6,0.5-0.9,0.6c-0.3,0.1-0.7,0.2-1.1,0.2c-0.4,0-0.7-0.1-1.1-0.2c-0.3-0.2-0.6-0.4-0.9-0.6
			s-0.5-0.5-0.6-0.9c-0.2-0.3-0.2-0.7-0.2-1.1c0-0.4,0.1-0.8,0.2-1.1c0.2-0.3,0.4-0.6,0.6-0.9s0.5-0.5,0.9-0.6
			c0.3-0.2,0.7-0.2,1.1-0.2c0.4,0,0.8,0.1,1.1,0.2c0.3,0.1,0.7,0.4,0.9,0.6s0.5,0.6,0.6,0.9c0.2,0.3,0.2,0.7,0.2,1.1
			C259.4,300.7,259.3,301.1,259.1,301.4z"/>
		<path fill="#D7D7D5" d="M284.3,322v2.1h-2.7h-4.4v-11.8c0-1.1-0.3-2-0.8-2.6c-0.5-0.6-1.3-0.9-2.3-0.9c-0.8,0-1.5,0.2-2.2,0.5
			s-1.3,0.8-1.9,1.4v9.8c0.4,0.1,0.8,0.1,1.1,0.2c0.3,0,0.4,0.1,0.5,0.1c0.1,0,0.2,0,0.2,0c0.6,0.1,0.9,0.5,0.9,1.1v2.1h-2.7h-4.4
			h-2.7V322c0-0.6,0.3-1,0.9-1.1c0.1,0,0.1,0,0.2,0c0.1,0,0.3,0,0.5-0.1c0.3,0,0.6-0.1,1.1-0.2v-11.3c-0.4-0.1-0.8-0.1-1.1-0.2
			c-0.3,0-0.4-0.1-0.5-0.1c-0.1,0-0.2,0-0.2,0c-0.6-0.1-0.9-0.5-0.9-1.1v-2.1h2.7l2.7,0c0.6,0,1,0.3,1.1,0.8l0.3,1.5
			c0.4-0.4,0.8-0.7,1.2-1c0.4-0.3,0.9-0.6,1.3-0.8c0.5-0.2,1-0.4,1.5-0.5s1.1-0.2,1.7-0.2c1,0,1.9,0.2,2.7,0.5
			c0.8,0.3,1.4,0.8,2,1.4c0.5,0.6,0.9,1.4,1.2,2.2c0.3,0.9,0.4,1.8,0.4,2.8v8.2c0.4,0.1,0.8,0.1,1.1,0.2c0.3,0,0.4,0.1,0.5,0.1
			c0.1,0,0.2,0,0.2,0C284,321.1,284.3,321.4,284.3,322z"/>
		<path fill="#D7D7D5" d="M288.7,323.1c-0.9-0.9-1.3-2.2-1.3-3.8V309h-1.9c-0.2,0-0.4-0.1-0.6-0.2c-0.2-0.2-0.3-0.4-0.3-0.7v-1.8
			l3-0.5l0.9-5c0-0.2,0.2-0.4,0.3-0.6c0.2-0.1,0.4-0.2,0.7-0.2h2.3v5.8h4.9v3.2h-4.9v10c0,0.6,0.1,1,0.4,1.4
			c0.3,0.3,0.7,0.5,1.2,0.5c0.3,0,0.5,0,0.7-0.1c0.2-0.1,0.3-0.1,0.5-0.2c0.1-0.1,0.3-0.1,0.4-0.2c0.1-0.1,0.2-0.1,0.3-0.1
			c0.1,0,0.2,0,0.3,0.1c0.1,0.1,0.2,0.2,0.3,0.3l1.3,2.2c-0.6,0.5-1.4,0.9-2.2,1.2c-0.8,0.3-1.7,0.4-2.6,0.4
			C290.7,324.5,289.5,324,288.7,323.1z"/>
		<path fill="#D7D7D5" d="M316.8,306.2c0.6,0.2,1.1,0.5,1.5,0.9s0.7,0.8,1,1.3c0.2,0.5,0.4,1,0.4,1.5l-2,0.4c0,0-0.1,0-0.1,0h-0.1
			c-0.1,0-0.3,0-0.4-0.1c-0.1-0.1-0.2-0.2-0.3-0.4c-0.1-0.2-0.2-0.4-0.3-0.6c-0.1-0.2-0.3-0.4-0.4-0.5c-0.2-0.1-0.4-0.3-0.6-0.3
			c-0.2-0.1-0.5-0.1-0.8-0.1c-0.3,0-0.7,0.1-0.9,0.2c-0.3,0.1-0.5,0.3-0.7,0.5s-0.3,0.4-0.4,0.7c-0.1,0.3-0.2,0.6-0.2,0.9
			c0,0.2,0,0.5,0.1,0.7c0.1,0.2,0.1,0.5,0.3,0.7s0.3,0.5,0.5,0.7s0.4,0.5,0.7,0.8l4.8,5c0.3-0.5,0.5-1.1,0.7-1.7
			c0.2-0.6,0.3-1.2,0.3-1.8c0-0.2,0.1-0.3,0.2-0.5c0.1-0.1,0.3-0.2,0.4-0.2h1.9c0,1.1-0.2,2.1-0.5,3.1c-0.3,1-0.8,1.9-1.3,2.8
			l3.8,3.9h-3c-0.2,0-0.3,0-0.4,0c-0.1,0-0.2,0-0.3-0.1c-0.1,0-0.2-0.1-0.3-0.2c-0.1-0.1-0.2-0.2-0.3-0.3l-1.2-1.3
			c-0.8,0.7-1.7,1.2-2.7,1.5c-1,0.4-2,0.5-3.2,0.5c-0.7,0-1.4-0.1-2-0.4s-1.3-0.6-1.8-1c-0.5-0.4-0.9-1-1.3-1.6
			c-0.3-0.6-0.5-1.4-0.5-2.2c0-0.6,0.1-1.1,0.3-1.6s0.4-1,0.8-1.4c0.3-0.4,0.7-0.8,1.2-1.2c0.4-0.4,0.9-0.7,1.5-0.9
			c-0.4-0.6-0.8-1.2-1-1.8c-0.2-0.6-0.3-1.2-0.3-1.8c0-0.6,0.1-1.2,0.3-1.8c0.2-0.6,0.6-1.1,1-1.5c0.4-0.4,1-0.7,1.6-1
			c0.6-0.2,1.3-0.4,2.2-0.4C315.5,305.9,316.2,306,316.8,306.2z M310.7,320.2c0.2,0.4,0.4,0.7,0.7,0.9c0.3,0.3,0.6,0.5,1,0.6
			c0.4,0.1,0.7,0.2,1.2,0.2c0.7,0,1.4-0.1,2-0.3c0.6-0.2,1.2-0.5,1.7-1l-4.8-4.9c-0.7,0.4-1.2,0.9-1.5,1.5c-0.3,0.5-0.5,1.1-0.5,1.8
			C310.4,319.4,310.5,319.8,310.7,320.2z"/>
		<path fill="#D7D7D5" d="M354.1,324.1h-2.5h-2.7c-0.3,0-0.5-0.1-0.7-0.2c-0.2-0.1-0.3-0.3-0.4-0.6l-0.4-1.7
			c-0.7,0.9-1.6,1.5-2.6,2.1s-2.1,0.8-3.4,0.8c-1,0-1.9-0.2-2.8-0.6c-0.8-0.4-1.6-1-2.2-1.8s-1.1-1.8-1.4-3s-0.5-2.5-0.5-4
			c0-1.4,0.2-2.7,0.6-3.8c0.4-1.2,0.9-2.2,1.6-3.1c0.7-0.9,1.5-1.5,2.5-2s2.1-0.7,3.3-0.7c1,0,1.9,0.2,2.7,0.5s1.4,0.8,2,1.3V301
			c-0.5-0.1-0.8-0.1-1.1-0.2c-0.3,0-0.4-0.1-0.5-0.1c-0.1,0-0.2,0-0.2,0c-0.6-0.1-0.9-0.5-0.9-1.1v-2.1h2.7h4.4v23.2
			c0.4,0.1,0.7,0.1,0.9,0.2s0.4,0.1,0.5,0.1c0.1,0,0.2,0,0.2,0c0.6,0.1,0.9,0.5,0.9,1.1L354.1,324.1z M347.1,310.4
			c-0.5-0.6-1.1-1.1-1.6-1.3c-0.6-0.2-1.2-0.4-1.9-0.4c-0.7,0-1.3,0.1-1.8,0.4s-1,0.6-1.4,1.2c-0.4,0.5-0.7,1.2-0.9,2
			s-0.3,1.7-0.3,2.8c0,1.1,0.1,2,0.3,2.7c0.2,0.8,0.4,1.4,0.7,1.8c0.3,0.5,0.7,0.8,1.2,1c0.5,0.2,1,0.3,1.6,0.3
			c0.9,0,1.7-0.2,2.4-0.6c0.7-0.4,1.3-0.9,1.8-1.6V310.4z"/>
		<path fill="#D7D7D5" d="M367.3,306c1,0.4,1.8,0.9,2.5,1.6c0.7,0.7,1.3,1.6,1.7,2.6c0.4,1,0.6,2.2,0.6,3.6c0,0.3,0,0.6,0,0.8
			c0,0.2-0.1,0.4-0.2,0.5s-0.2,0.2-0.3,0.3c-0.1,0.1-0.3,0.1-0.5,0.1h-11.4c0.1,1.9,0.6,3.3,1.5,4.2c0.9,0.9,2.1,1.3,3.5,1.3
			c0.7,0,1.3-0.1,1.9-0.3c0.5-0.2,1-0.4,1.4-0.6s0.7-0.4,1-0.6c0.3-0.2,0.6-0.3,0.9-0.3c0.2,0,0.3,0,0.5,0.1s0.2,0.2,0.3,0.3
			l1.3,1.6c-0.5,0.6-1,1.1-1.7,1.4c-0.6,0.4-1.3,0.7-1.9,0.9s-1.3,0.4-2,0.5c-0.7,0.1-1.4,0.1-2,0.1c-1.3,0-2.5-0.2-3.6-0.6
			c-1.1-0.4-2.1-1.1-2.9-1.9s-1.5-1.9-1.9-3.1c-0.5-1.2-0.7-2.7-0.7-4.3c0-1.3,0.2-2.4,0.6-3.6c0.4-1.1,1-2.1,1.8-2.9s1.7-1.5,2.8-2
			c1.1-0.5,2.3-0.7,3.7-0.7C365.2,305.4,366.3,305.6,367.3,306z M361.1,309.7c-0.7,0.7-1.2,1.8-1.4,3.1h8.4c0-0.6-0.1-1.1-0.2-1.6
			c-0.2-0.5-0.4-1-0.7-1.3c-0.3-0.4-0.7-0.7-1.2-0.9c-0.5-0.2-1.1-0.3-1.7-0.3C362.9,308.6,361.8,309,361.1,309.7z"/>
		<path fill="#D7D7D5" d="M386.6,318.3c0,0.9-0.2,1.7-0.5,2.5c-0.3,0.8-0.8,1.4-1.4,1.9c-0.6,0.5-1.4,1-2.3,1.3
			c-0.9,0.3-2,0.5-3.2,0.5c-2.3,0-4.5-0.5-5.9-1v0v-1.8v-3.4h0.2h0.4h1.5c0.5,0,0.7,0.2,0.8,0.7c0,0.2,0.1,0.7,0.2,2.1
			c1,0.3,2.1,0.3,2.9,0.3c0.5,0,1-0.1,1.4-0.2c0.4-0.1,0.7-0.3,0.9-0.5s0.4-0.4,0.5-0.7c0.1-0.3,0.2-0.5,0.2-0.8
			c0-0.4-0.1-0.8-0.4-1.1c-0.3-0.3-0.6-0.5-1-0.7s-0.9-0.4-1.5-0.5c-0.5-0.2-1.1-0.3-1.7-0.5c-0.6-0.2-1.1-0.4-1.7-0.7
			c-0.5-0.3-1-0.6-1.5-1s-0.8-0.9-1-1.5c-0.3-0.6-0.4-1.3-0.4-2.1c0-0.8,0.2-1.5,0.5-2.2c0.3-0.7,0.7-1.3,1.3-1.8
			c0.6-0.5,1.3-0.9,2.2-1.2c0.9-0.3,1.9-0.5,3-0.5c1.8,0,2.8,0.1,5.4,1l0,0v5.2h-0.2h-0.4h-1.5c-0.5,0-0.7-0.2-0.8-0.7
			c0-0.2-0.1-0.6-0.2-2c-0.5-0.2-1.3-0.2-2.1-0.2c-0.9,0-1.6,0.2-2.1,0.6s-0.8,0.9-0.8,1.5c0,0.4,0.1,0.7,0.4,1
			c0.3,0.3,0.6,0.5,1,0.7s0.9,0.4,1.4,0.5c0.5,0.2,1.1,0.3,1.7,0.5c0.6,0.2,1.1,0.4,1.7,0.7c0.5,0.2,1,0.6,1.4,0.9
			c0.4,0.4,0.8,0.8,1,1.4S386.6,317.6,386.6,318.3z"/>
		<path fill="#D7D7D5" d="M397.7,322v2.1h-2.7h-4.4h-2.7V322c0-0.6,0.3-1,0.9-1.1c0.1,0,0.1,0,0.2,0s0.3-0.1,0.5-0.1
			c0.3,0,0.6-0.1,1.1-0.2v-11.3c-0.4-0.1-0.8-0.1-1.1-0.2c-0.3,0-0.4-0.1-0.5-0.1c-0.1,0-0.2,0-0.2,0c-0.6-0.1-0.9-0.5-0.9-1.1v-2.1
			h2.7h4.4v14.9c0.4,0.1,0.8,0.1,1.1,0.2s0.4,0.1,0.5,0.1s0.2,0,0.2,0C397.4,321.1,397.7,321.4,397.7,322z M395.4,301.4
			c-0.2,0.3-0.4,0.6-0.6,0.9s-0.6,0.5-0.9,0.6c-0.3,0.1-0.7,0.2-1.1,0.2c-0.4,0-0.7-0.1-1.1-0.2c-0.3-0.2-0.6-0.4-0.9-0.6
			s-0.5-0.5-0.6-0.9c-0.1-0.3-0.2-0.7-0.2-1.1c0-0.4,0.1-0.8,0.2-1.1c0.2-0.3,0.4-0.6,0.6-0.9s0.5-0.5,0.9-0.6
			c0.3-0.2,0.7-0.2,1.1-0.2c0.4,0,0.8,0.1,1.1,0.2c0.3,0.1,0.7,0.4,0.9,0.6s0.5,0.6,0.6,0.9c0.2,0.3,0.2,0.7,0.2,1.1
			C395.6,300.7,395.5,301.1,395.4,301.4z"/>
		<path fill="#D7D7D5" d="M409.1,305.6c0.7,0.2,1.3,0.4,1.9,0.7h5.3v1.7c0,0.3-0.1,0.5-0.2,0.6c-0.1,0.2-0.4,0.3-0.7,0.3l-1.7,0.3
			c0.1,0.3,0.2,0.6,0.3,1c0.1,0.3,0.1,0.7,0.1,1.1c0,0.9-0.2,1.7-0.5,2.5c-0.4,0.7-0.9,1.4-1.5,1.9c-0.6,0.5-1.4,0.9-2.3,1.2
			c-0.9,0.3-1.8,0.4-2.9,0.4c-0.7,0-1.4-0.1-2-0.2c-0.6,0.3-0.9,0.7-0.9,1.2c0,0.4,0.2,0.6,0.5,0.8c0.3,0.2,0.8,0.3,1.3,0.4
			c0.6,0.1,1.2,0.1,1.9,0.1c0.7,0,1.4,0.1,2.2,0.1c0.7,0.1,1.5,0.2,2.2,0.3c0.7,0.2,1.3,0.4,1.9,0.7s1,0.8,1.4,1.3
			c0.3,0.6,0.5,1.3,0.5,2.2c0,0.8-0.2,1.6-0.6,2.4c-0.4,0.8-1,1.5-1.7,2.1c-0.8,0.6-1.7,1.1-2.8,1.5c-1.1,0.4-2.4,0.5-3.8,0.5
			c-1.4,0-2.6-0.1-3.7-0.4c-1-0.3-1.9-0.6-2.6-1.1c-0.7-0.5-1.2-1-1.5-1.6s-0.5-1.2-0.5-1.8c0-0.9,0.3-1.6,0.8-2.2
			c0.5-0.6,1.3-1.1,2.2-1.4c-0.5-0.3-0.8-0.6-1.1-1c-0.3-0.4-0.4-1-0.4-1.6c0-0.3,0-0.6,0.1-0.9s0.2-0.6,0.4-0.9
			c0.2-0.3,0.4-0.6,0.7-0.8c0.3-0.3,0.7-0.5,1.1-0.7c-0.9-0.5-1.7-1.2-2.2-2c-0.5-0.8-0.8-1.8-0.8-3c0-0.9,0.2-1.7,0.5-2.5
			c0.4-0.7,0.9-1.4,1.5-1.9c0.7-0.5,1.4-0.9,2.3-1.2s1.9-0.4,2.9-0.4C407.7,305.4,408.4,305.5,409.1,305.6z M411.4,324.1
			c-0.2-0.2-0.5-0.4-0.9-0.5c-0.4-0.1-0.8-0.2-1.3-0.3c-0.5-0.1-1-0.1-1.6-0.1s-1.1-0.1-1.7-0.1c-0.6,0-1.2-0.1-1.7-0.2
			c-0.5,0.3-0.9,0.6-1.2,1c-0.3,0.4-0.5,0.8-0.5,1.3c0,0.3,0.1,0.6,0.2,0.9c0.2,0.3,0.4,0.5,0.8,0.7c0.4,0.2,0.8,0.4,1.4,0.5
			c0.6,0.1,1.3,0.2,2.1,0.2c0.8,0,1.5-0.1,2.1-0.2c0.6-0.1,1.1-0.3,1.5-0.5c0.4-0.2,0.7-0.5,0.9-0.8c0.2-0.3,0.3-0.6,0.3-1
			S411.7,324.3,411.4,324.1z M408.3,314.3c0.4-0.1,0.7-0.4,1-0.6c0.3-0.3,0.5-0.6,0.6-1s0.2-0.8,0.2-1.2c0-0.9-0.3-1.6-0.8-2.2
			c-0.5-0.5-1.4-0.8-2.5-0.8s-1.9,0.3-2.5,0.8c-0.5,0.5-0.8,1.3-0.8,2.2c0,0.4,0.1,0.8,0.2,1.2c0.1,0.4,0.3,0.7,0.6,1
			c0.3,0.3,0.6,0.5,1,0.6c0.4,0.2,0.9,0.2,1.4,0.2C407.4,314.5,407.9,314.4,408.3,314.3z"/>
		<path fill="#D7D7D5" d="M439.1,322v2.1h-2.7h-4.4v-11.8c0-1.1-0.3-2-0.8-2.6c-0.5-0.6-1.3-0.9-2.3-0.9c-0.8,0-1.5,0.2-2.2,0.5
			s-1.3,0.8-1.9,1.4v9.8c0.4,0.1,0.8,0.1,1.1,0.2c0.3,0,0.4,0.1,0.5,0.1c0.1,0,0.2,0,0.2,0c0.6,0.1,0.9,0.5,0.9,1.1v2.1h-2.7h-4.4
			h-2.7V322c0-0.6,0.3-1,0.9-1.1c0.1,0,0.1,0,0.2,0c0.1,0,0.3,0,0.5-0.1c0.3,0,0.6-0.1,1.1-0.2v-11.3c-0.4-0.1-0.8-0.1-1.1-0.2
			c-0.3,0-0.4-0.1-0.5-0.1c-0.1,0-0.2,0-0.2,0c-0.6-0.1-0.9-0.5-0.9-1.1v-2.1h2.7l2.7,0c0.6,0,1,0.3,1.1,0.8l0.3,1.5
			c0.4-0.4,0.8-0.7,1.2-1c0.4-0.3,0.9-0.6,1.3-0.8c0.5-0.2,1-0.4,1.5-0.5c0.5-0.1,1.1-0.2,1.7-0.2c1,0,1.9,0.2,2.7,0.5
			c0.8,0.3,1.4,0.8,2,1.4c0.5,0.6,0.9,1.4,1.2,2.2c0.3,0.9,0.4,1.8,0.4,2.8l0,8.2c0.4,0.1,0.8,0.1,1.1,0.2c0.3,0,0.4,0.1,0.5,0.1
			c0.1,0,0.2,0,0.2,0C438.8,321.1,439.1,321.4,439.1,322z"/>
	</g>
	<circle fill="#75B4DD" cx="434.8" cy="176.4" r="8.3"/>
	<circle fill="#EEF1B6" cx="469.4" cy="171.5" r="2.1"/>
	<circle fill="#81C99A" cx="481" cy="154.8" r="2.1"/>
	<circle fill="#FDC58E" cx="454.9" cy="125.6" r="2.1"/>
	<circle fill="#81C99A" cx="482.4" cy="83.3" r="2.1"/>
	<circle fill="#75B4DD" cx="455.7" cy="58.9" r="2.1"/>
	<circle fill="#EEF1B6" cx="417.6" cy="88.4" r="2.1"/>
	<circle fill="#75B4DD" cx="448.6" cy="91.4" r="2.1"/>
	<circle fill="#75B4DD" cx="484.9" cy="104.6" r="4.6"/>
	<circle fill="#FDC58E" cx="429.1" cy="149" r="4.6"/>
	<circle fill="#EEF1B6" cx="440.9" cy="183.4" r="4.6"/>
	<circle fill="#EEF1B6" cx="447.8" cy="139.8" r="4.6"/>
	<circle fill="#81C99A" cx="431.1" cy="126.9" r="4.6"/>
	<circle fill="#ED6363" cx="410.8" cy="105.4" r="4.6"/>
	<circle fill="#81C99A" cx="455.7" cy="168.1" r="4.6"/>
	<circle fill="#FDC58E" cx="475.3" cy="135.1" r="4.6"/>
	<circle fill="#EEF1B6" cx="455.7" cy="110" r="4.6"/>
	<circle fill="#ED6363" cx="461.4" cy="78.6" r="4.6"/>
	<circle fill="#FDC58E" cx="428.2" cy="76.3" r="4.6"/>
	<circle fill="#ED6363" cx="405.4" cy="72.1" r="4.4"/>
	<circle fill="#81C99A" cx="478.6" cy="111.7" r="8.3"/>
	<circle fill="#81C99A" cx="402.7" cy="81.3" r="8.3"/>
	<circle fill="#ED6363" cx="463.2" cy="152.7" r="8.3"/>
	<circle fill="#FDC58E" cx="432.8" cy="103.3" r="8.3"/>
	<circle fill="#EEF1B6" cx="436.3" cy="68.9" r="8.3"/>
</g>
<g>
</g>
<g>
</g>
<g>
</g>
<g>
</g>
<g>
</g>
<g>
</g>
<g>
</g>
<g>
</g>
<g>
</g>
<g>
</g>
<g>
</g>
<g>
</g>
<g>
</g>
<g>
</g>
<g>
</g>
</svg>
